<?xml version="1.0" encoding="UTF-8" standalone="no"?>
<svg
   xmlns:dc="http://purl.org/dc/elements/1.1/"
   xmlns:cc="http://creativecommons.org/ns#"
   xmlns:rdf="http://www.w3.org/1999/02/22-rdf-syntax-ns#"
   xmlns:svg="http://www.w3.org/2000/svg"
   xmlns="http://www.w3.org/2000/svg"
   xmlns:sodipodi="http://sodipodi.sourceforge.net/DTD/sodipodi-0.dtd"
   xmlns:inkscape="http://www.inkscape.org/namespaces/inkscape"
   width="400mm"
   height="400mm"
   viewBox="-60 -216 400 400"
   version="1.1"
   id="svg6"
   sodipodi:docname="coupe.svg"
   inkscape:version="1.0.1 (3bc2e813f5, 2020-09-07)">
  <metadata
     id="metadata12">
    <rdf:RDF>
      <cc:Work
         rdf:about="">
        <dc:format>image/svg+xml</dc:format>
        <dc:type
           rdf:resource="http://purl.org/dc/dcmitype/StillImage" />
        <dc:title>OpenSCAD Model</dc:title>
      </cc:Work>
    </rdf:RDF>
  </metadata>
  <defs
     id="defs10">
    <filter
       inkscape:collect="always"
       style="color-interpolation-filters:sRGB"
       id="filter922"
       x="-0.00022824156"
       width="1.0004565"
       y="-0.0007344225"
       height="1.0014688">
      <feGaussianBlur
         inkscape:collect="always"
         stdDeviation="0.0075890322"
         id="feGaussianBlur924" />
    </filter>
    <filter
       inkscape:collect="always"
       style="color-interpolation-filters:sRGB"
       id="filter926"
       x="-0.00016630142"
       width="1.0003326"
       y="-9.3865973e-05"
       height="1.0001877">
      <feGaussianBlur
         inkscape:collect="always"
         stdDeviation="0.0075890322"
         id="feGaussianBlur928" />
    </filter>
  </defs>
  <sodipodi:namedview
     pagecolor="#ffffff"
     bordercolor="#666666"
     borderopacity="1"
     objecttolerance="10"
     gridtolerance="10"
     guidetolerance="10"
     inkscape:pageopacity="0"
     inkscape:pageshadow="2"
     inkscape:window-width="1680"
     inkscape:window-height="987"
     id="namedview8"
     showgrid="false"
     inkscape:zoom="0.48861496"
     inkscape:cx="493.73941"
     inkscape:cy="616.87887"
     inkscape:window-x="-8"
     inkscape:window-y="-8"
     inkscape:window-maximized="1"
     inkscape:current-layer="svg6"
     inkscape:document-units="mm"
     inkscape:document-rotation="0" />
  <title
     id="title2">OpenSCAD Model</title>
  <path
     d="m 33.6049,-17.1509 1.9032,-10e-5 1.9273,-3e-4 1.9524,-5e-4 1.968,-8e-4 1.964,-0.0011 1.9492,-0.0015 1.3985,-0.0012 0.513,-6e-4 1.96,-0.0024 0.9679,-0.0014 0.5496,-9e-4 0.4198,-6e-4 1.2282,-0.0022 0.8706,-0.0016 0.8708,-0.0019 0.4547,-0.0011 0.4755,-0.0012 0.4492,-0.0013 0.2952,-8e-4 0.4962,-0.0017 0.6845,-0.0022 0.251,-10e-4 0.7057,-0.0032 0.3722,-0.0022 0.3226,-0.0018 0.4638,-0.0042 0.1346,-0.0021 0.0319,-6e-4 0.5598,-1.3968 0.4251,-1.6167 0.287,-1.7745 0.1682,-1.9092 0.0966,-2.8373 -4e-4,-0.2113 -0.0795,-4.0937 -0.2428,-4.7428 -0.5146,-8.6849 -0.1279,-2.5508 -0.183,-3.9902 -0.4384,-12.6778 -0.2567,-5.7522 -0.35,-6.2495 -0.9997,-13.9232 -0.5451,-8.3256 -0.8192,-14.6931 -0.5307,-7.811 -0.3257,-4.14 -0.3852,-4.466 -0.5178,-5.507 -0.6998,-6.224 -0.4378,-3.422 -0.5888,-4.424 -0.367,-2.424 -0.941,-5.925 -1.2734,-6.874 -0.8139,-4.023 -0.968,-4.38 -1.1008,-4.409 -0.7381,-2.624 -1.0536,-3.358 -1.0254,-2.791 -1.0488,-2.533 -1.3187,-2.763 -1.4967,-2.727 -1.1408,-1.767 -1.3042,-1.861 -2.4137,-3.001 -2.3268,-2.371 -1.0694,-0.961 -1.2347,-1.105 -2.586,-2.038 -2.4932,-1.653 -2.2518,-1.28 -2.0255,-1.014 -2.1235,-0.917 -0.2821,-0.111 -0.0248,-0.006 -0.0502,-0.012 -0.1052,-0.026 0.0013,-0.003 -0.0532,-0.014 -0.0032,-10e-4 -0.1644,-0.041 -0.0284,-0.006 -0.0829,-0.021 -0.1562,-0.038 -0.0263,-0.007 -0.2583,-0.063 -0.1344,-0.032 -0.2577,-0.064 -0.2049,-0.049 -0.0506,-0.013 -0.1485,-0.036 -0.3148,-0.077 -0.2779,-0.068 -0.2887,-0.07 -0.3614,-0.088 -0.2595,-0.063 -0.2692,-0.066 -0.0953,-0.023 -0.137,-0.033 -0.5086,-0.178 -0.1456,-0.049 -0.276,-0.083 -1.7359,-0.497 -0.4018,-0.108 -0.4102,-0.094 -2.14666,-0.499 -1.35629,-0.239 -0.69449,-0.114 -0.18185,-0.044 -0.18895,-0.046 -0.2444,-0.059 -0.18276,-0.044 -0.0347,-0.008 -0.08932,-0.022 -0.1892,-0.046 -0.11886,-0.028 -0.10619,-0.025 -0.16224,-0.04 -0.12517,-0.03 -0.11392,-0.027 -0.06572,-0.015 -0.06519,-0.015 -0.02722,-0.007 -0.00726,-0.002 -0.00438,-10e-4 -3.4e-4,10e-4 -0.03291,-0.008 -0.27355,-0.066 -0.52142,-0.125 -0.25504,-0.059 h -0.0012 l -0.01994,-0.004 -2.16739,-0.16 -2.243152,-0.067 -0.727798,0.023 0.020996,0.089 0.020675,0.086 -0.353149,0.084 -0.341309,0.082 H -1.2558 l -1.50441,0.088 -1.07268,0.08 -1.5859,0.172 -0.91234,0.119 -1.43923,0.239 -1.27177,0.226 -0.47261,0.108 -2.10216,0.493 -0.4631,0.125 -1.9211,0.552 -0.1858,0.056 -0.1023,0.034 -2.1661,0.764 -1.1164,0.446 -1.4152,0.602 -1.1954,0.55 -0.0848,-0.346 -0.0034,-0.014 -0.0023,-0.009 -0.0089,-0.036 -0.0165,-0.066 -0.0055,-0.022 -0.4225,0.183 -2.0772,1.035 -2.2912,1.296 -2.6519,1.774 -2.5116,1.993 -0.9972,0.893 -1.3155,1.188 -2.3389,2.414 -2.0937,2.586 -1.0854,1.526 -0.4533,0.641 -1.2851,2.016 -1.4202,2.622 -1.1437,2.406 -1.1437,2.734 -1.0835,2.955 -1.077,3.517 -0.6739,2.375 -1.0413,4.159 -0.9428,4.239 -0.8685,4.268 -1.275,6.881 -0.9817,6.182 -0.31,2.043 -0.6361,4.759 -0.3858,3.024 -0.6984,6.171 -0.5242,5.567 -0.1356,1.476 -0.5873,7.149 -0.5284,7.784 -0.8568,15.295 -0.4697,7.2177 -1.0504,14.6404 -0.3609,6.3795 -0.2762,6.3561 -0.4086,11.9902 -0.1052,2.301 -0.2296,4.6265 -0.5095,8.56 -0.2299,4.505 -0.077,3.9736 2e-4,0.3219 0.0961,2.8136 0.168,1.9094 0.2868,1.7747 0.4248,1.617 0.5603,1.399 0.0304,6e-4 0.1363,0.0021 0.4402,0.004 0.7181,0.0042 0.6175,0.0028 0.2931,0.0012 1.2267,0.0041 0.7518,0.0021 0.5112,0.0013 0.4812,0.0011 0.804,0.0018 0.8478,0.0016 1.3022,0.0023 1.0069,0.0016 0.8514,0.0012 1.1626,0.0014 0.8186,0.001 0.5167,6e-4 1.3947,0.0012 1.9489,0.0015 1.9637,0.0011 1.9677,8e-4 1.9522,5e-4 1.9269,3e-4 1.9029,10e-5 1.8789,-10e-5 2.7835,-4e-4 2.712,-7e-4 1.7878,-7e-4 2.0633,-0.0011 1.1608,-7e-4 1.9824,-0.0013 0.9637,-9e-4 0.7148,-5e-4 1.1012,-0.0011 0.5223,-5e-4 1.6644,-0.002 1.3035,-0.0021 0.4578,-8e-4 0.394,-9e-4 0.404,-9e-4 0.6213,-0.0016 0.26135,-8e-4 0.2018,-6e-4 0.66487,-0.0024 0.14218,-7e-4 0.31218,-0.0012 0.39205,-0.002 0.22589,-0.0013 0.45731,-0.0032 0.16188,-0.0014 0.39675,-0.0051 0.04726,-0.0016 0.09451,-0.0024 0.00164,-0.0011 0.01902,-0.0018 0.30013,-1.057 0.17979,-1.0397 0.14835,-0.7854 0.2767,-2.4017 0.22713,-3.0929 0.20473,-3.0635 0.20266,-2.948 0.36695,-4.1614 0.25914,-2.255 0.35826,-2.1752 0.34927,-1.5624 0.10028,-0.3741 0.4404,-1.1998 0.5275,-0.9227 0.41003,-0.4682 0.2242,-0.1848 0.31274,-0.132 0.984852,-0.2652 1.412186,-0.1065 1.395412,0.1005 1.02964,0.2967 0.29588,0.125 0.26637,0.2022 0.36652,0.4567 0.48955,0.8527 0.46588,1.2623 0.41719,1.7853 0.35788,2.1191 0.30789,2.5371 0.00476,0.0475 0.29225,3.4649 0.15431,2.0259 0.23363,3.4366 0.13327,1.9417 0.16263,2.2454 0.28055,2.3773 0.32727,1.8317 0.30665,1.0869 0.00219,0.0011 0.01878,0.0018 0.05391,0.0017 0.09862,0.0025 0.11555,0.0015 0.26952,0.0034 0.13574,0.0012 0.37256,0.0026 0.10019,7e-4 0.23642,0.0014 0.23802,0.0012 0.14168,7e-4 0.4989,0.0021 0.6414,0.0023 0.0526,2e-4 0.0251,10e-5 0.1414,4e-4 0.8438,0.0023 0.8136,0.0018 0.4413,8e-4 1.1662,0.0019 0.2537,3e-4 1.5478,0.0018 0.5412,6e-4 1.083,0.0011 0.7211,5e-4 0.958,9e-4 1.9853,0.0013 1.235,7e-4 1.9914,0.0011 1.7855,6e-4 2.7737,8e-4 2.7234,4e-4 z"
     stroke="black"
     fill="lightgray"
     stroke-width="0.5"
     id="path4"
     style="fill:none;stroke:#ff0000;stroke-opacity:1" />
  <circle
     style="fill:none;stroke:#ff0000;stroke-width:0.2;stroke-opacity:1"
     id="path837"
     cx="215.08028"
     cy="16.302036"
     r="100" />
  <path
     id="path839"
     style="fill:none;stroke:#ff0000;stroke-opacity:1"
     d="m 30.556804,-17.152851 c 7.743067,-0.0065 15.486315,0.0086 23.229245,-0.03988 2.680407,-8.167634 0.815595,-16.938244 0.710197,-25.348888 -0.64271,-16.994702 -1.250036,-33.990698 -2.53928,-50.952751 -1.500177,-28.77023 -2.885779,-57.89936 -10.6686,-85.79352 -3.635516,-12.36293 -12.214997,-24.01774 -24.603643,-28.53932 -5.531065,-1.41136 -11.2642698,-3.70392 -16.89505129,-3.30908 -6.01478101,0.62848 -12.55656671,1.75099 -18.07785371,4.8068 l -4.823495,2.2416 c -11.139766,7.37531 -16.866736,20.22893 -19.462599,32.91604 -7.447414,32.42895 -7.468298,65.84964 -9.866187,98.870466 -0.614635,14.754782 -1.150675,29.514188 -1.85623,44.263739 0.05541,3.592355 -0.163256,7.719861 1.524681,10.850663 15.528874,0.0484 24.472027,0.0702 40.000001,1e-6 1.962236,-8.52328 3.9621795,-6.921854 3.9621795,-6.921854 l 19.9130985,0.430579 2.682782,6.485524 c 7.812817,0.05342 8.957744,0.03475 16.770755,0.03986 z"
     sodipodi:nodetypes="sccccccccccccccccss" />
  <rect
     style="fill:none;stroke:#ff0000;stroke-width:0.2;stroke-opacity:1"
     id="rect841"
     width="80"
     height="45"
     x="-39.568447"
     y="-95.896004" />
  <rect
     style="fill:none;stroke:#ff0000;stroke-width:0.2;stroke-opacity:1"
     id="rect843"
     width="40"
     height="5"
     x="-19.568447"
     y="-55.895996" />
  <rect
     style="fill:none;stroke:#ff0000;stroke-width:0.2;stroke-opacity:1"
     id="rect841-0"
     width="80"
     height="50"
     x="74.60054"
     y="-157.50633" />
  <rect
     style="fill:none;stroke:#ff0000;stroke-width:0.2;stroke-opacity:1"
     id="rect843-0"
     width="39.799999"
     height="4.8000002"
     x="94.60054"
     y="-135.00633" />
  <g
     id="g958">
    <rect
       style="fill:none;stroke:#ff0000;stroke-width:0.2;stroke-opacity:1"
       id="rect843-9"
       width="40"
       height="5"
       x="-52.772011"
       y="-17.186981" />
    <rect
       style="fill:none;stroke:#ff0000;stroke-width:0.2;stroke-opacity:1"
       id="rect843-9-5"
       width="40"
       height="5"
       x="13.786049"
       y="-17.192732" />
  </g>
  <g
     id="g954"
     transform="translate(1.6925888,-5.0934324)">
    <rect
       style="fill:none;stroke:#ff0000;stroke-width:0.2;stroke-opacity:1"
       id="rect843-9-2"
       width="39.799999"
       height="4.8000002"
       x="160.10866"
       y="18.898344" />
    <rect
       style="fill:none;stroke:#ff0000;stroke-width:0.2;stroke-opacity:1"
       id="rect843-9-5-6"
       width="39.799999"
       height="4.8000002"
       x="226.66672"
       y="18.892593" />
  </g>
  <path
     id="path1496"
     style="fill:none;stroke:#ff0000;stroke-opacity:1;opacity:0.999;filter:url(#filter926)"
     d="m 30.556804,-17.152851 c 7.743067,-0.0065 15.486315,0.0086 23.229245,-0.03988 2.680407,-8.167634 0.815595,-16.938244 0.710197,-25.348888 -0.64271,-16.994702 -1.250036,-33.990698 -2.53928,-50.952751 -1.500177,-28.77023 -2.885779,-57.89936 -10.6686,-85.79352 -3.635516,-12.36293 -12.214997,-24.01774 -24.603643,-28.53932 -5.531065,-1.41136 -11.2642698,-3.70392 -16.89505129,-3.30908 -6.01478101,0.62848 -12.55656671,1.75099 -18.07785371,4.8068 l -4.823495,2.2416 c -11.139766,7.37531 -16.866736,20.22893 -19.462599,32.91604 -7.447414,32.42895 -7.468298,65.84964 -9.866187,98.870466 -0.614635,14.754782 -1.150675,29.514188 -1.85623,44.263739 0.05541,3.592355 -0.163256,7.719861 1.524681,10.850663 15.528874,0.0484 24.472027,0.0702 40.000001,1e-6 1.962236,-8.52328 3.9621795,-6.921854 3.9621795,-6.921854 l 19.9130985,0.430579 2.682782,6.485524 c 7.812817,0.05342 8.957744,0.03475 16.770755,0.03986 z"
     sodipodi:nodetypes="sccccccccccccccccss" />
  <rect
     style="opacity:0.999;fill:none;stroke:#ff0000;stroke-width:0.2;stroke-opacity:1;filter:url(#filter922)"
     id="rect1498"
     width="79.800003"
     height="24.799999"
     x="-39.435654"
     y="-126.56173" />
  <g
     id="p-1"
     style="fill:none;stroke-linecap:round;stroke-linejoin:round;stroke:#ff0000;stroke-opacity:1"
     transform="translate(-62.810546,27.983669)">
    <path
       d="m 13.1,83.6 h 10 c 0.055,0 0.1,-0.045 0.1,-0.1 v -2.9 c 0,-0.1 -0.1,0 0,0 H 29 c 0.1,0 0,-0.1 0,0 v 2.9 c 0,0.055 0.045,0.1 0.1,0.1 h 6 c 0.055,0 0.1,-0.045 0.1,-0.1 v -2.9 c 0,-0.1 -0.1,0 0,0 H 41 c 0.1,0 0,-0.1 0,0 v 2.9 c 0,0.055 0.045,0.1 0.1,0.1 h 6 c 0.055,0 0.1,-0.045 0.1,-0.1 v -2.9 c 0,-0.1 -0.1,0 0,0 H 53 c 0.1,0 0,-0.1 0,0 v 2.9 c 0,0.055 0.045,0.1 0.1,0.1 h 6 c 0.055,0 0.1,-0.045 0.1,-0.1 v -2.9 c 0,-0.1 -0.1,0 0,0 H 65 c 0.1,0 0,-0.1 0,0 v 2.9 c 0,0.055 0.045,0.1 0.1,0.1 h 6 c 0.055,0 0.1,-0.045 0.1,-0.1 v -2.9 c 0,-0.1 -0.1,0 0,0 H 77 c 0.1,0 0,-0.1 0,0 v 2.9 c 0,0.055 0.045,0.1 0.1,0.1 h 10 3 c 0.055,0 0.1,-0.045 0.1,-0.1 v -3 -6.5 c 0,-0.055 -0.045,-0.1 -0.1,-0.1 h -2.9 c -0.1,0 0,0.1 0,0 v -5.8 c 0,-0.1 -0.1,0 0,0 h 2.9 c 0.055,0 0.1,-0.045 0.1,-0.1 v -6.5 -3 c 0,-0.055 -0.045,-0.1 -0.1,-0.1 h -3 -10 c -0.055,0 -0.1,0.045 -0.1,0.1 v 2.9 c 0,0.1 0.1,0 0,0 h -5.8 c -0.1,0 0,0.1 0,0 v -2.9 c 0,-0.055 -0.045,-0.1 -0.1,-0.1 h -6 c -0.055,0 -0.1,0.045 -0.1,0.1 v 2.9 c 0,0.1 0.1,0 0,0 h -5.8 c -0.1,0 0,0.1 0,0 v -2.9 c 0,-0.055 -0.045,-0.1 -0.1,-0.1 h -6 c -0.055,0 -0.1,0.045 -0.1,0.1 v 2.9 c 0,0.1 0.1,0 0,0 h -5.8 c -0.1,0 0,0.1 0,0 v -2.9 c 0,-0.055 -0.045,-0.1 -0.1,-0.1 h -6 c -0.055,0 -0.1,0.045 -0.1,0.1 v 2.9 c 0,0.1 0.1,0 0,0 h -5.8 c -0.1,0 0,0.1 0,0 v -2.9 c 0,-0.055 -0.045,-0.1 -0.1,-0.1 h -6 c -0.055,0 -0.1,0.045 -0.1,0.1 v 2.9 c 0,0.1 0.1,0 0,0 h -5.8 c -0.1,0 0,0.1 0,0 v -2.9 c 0,-0.055 -0.045,-0.1 -0.1,-0.1 h -10 -3 c -0.055,0 -0.1,0.045 -0.1,0.1 v 3 6.5 c 0,0.055 0.045,0.1 0.1,0.1 H 13 c 0.1,0 0,-0.1 0,0 v 5.8 c 0,0.1 0.1,0 0,0 H 10.1 C 10.045,73.9 10,73.945 10,74 v 6.5 3 c 0,0.055 0.045,0.1 0.1,0.1 z"
       stroke="#000000"
       stroke-width="0.2"
       id="path11"
       style="stroke:#ff0000;stroke-opacity:1" />
  </g>
  <g
     id="p-2"
     style="fill:none;stroke-linecap:round;stroke-linejoin:round;stroke:#ff0000;stroke-opacity:1"
     transform="translate(-62.810546,27.983669)">
    <path
       d="m 94.8,83.6 h 7 7 c 0.055,0 0.1,-0.045 0.1,-0.1 v -3 -6.4 c 0,-0.1 -0.1,0 0,0 h 2.9 c 0.055,0 0.1,-0.045 0.1,-0.1 v -6 c 0,-0.055 -0.045,-0.1 -0.1,-0.1 h -2.9 c -0.1,0 0,0.1 0,0 v -6.4 -3 c 0,-0.055 -0.045,-0.1 -0.1,-0.1 h -7 -7 c -0.055,0 -0.1,0.045 -0.1,0.1 v 3 6.4 c 0,0.1 0.1,0 0,0 h -2.9 c -0.055,0 -0.1,0.045 -0.1,0.1 v 6 c 0,0.055 0.045,0.1 0.1,0.1 h 2.9 c 0.1,0 0,-0.1 0,0 v 6.4 3 c 0,0.055 0.045,0.1 0.1,0.1 z"
       stroke="#000000"
       stroke-width="0.2"
       id="path14"
       style="stroke:#ff0000;stroke-opacity:1" />
  </g>
  <g
     id="p-3"
     style="fill:none;stroke-linecap:round;stroke-linejoin:round;stroke:#ff0000;stroke-opacity:1"
     transform="translate(-62.810546,27.983669)">
    <path
       d="m 94.8,56.9 h 7 7 c 0.055,0 0.1,-0.045 0.1,-0.1 v -3 -6.4 c 0,-0.1 -0.1,0 0,0 h 2.9 c 0.055,0 0.1,-0.045 0.1,-0.1 v -6 c 0,-0.055 -0.045,-0.1 -0.1,-0.1 h -2.9 c -0.1,0 0,0.1 0,0 v -6.4 -3 c 0,-0.055 -0.045,-0.1 -0.1,-0.1 h -7 -7 c -0.055,0 -0.1,0.045 -0.1,0.1 v 3 6.4 c 0,0.1 0.1,0 0,0 h -2.9 c -0.055,0 -0.1,0.045 -0.1,0.1 v 6 c 0,0.055 0.045,0.1 0.1,0.1 h 2.9 c 0.1,0 0,-0.1 0,0 v 6.4 3 c 0,0.055 0.045,0.1 0.1,0.1 z"
       stroke="#000000"
       stroke-width="0.2"
       id="path17"
       style="stroke:#ff0000;stroke-opacity:1" />
  </g>
  <g
     id="p-4"
     style="fill:none;stroke-linecap:round;stroke-linejoin:round;stroke:#ff0000;stroke-opacity:1"
     transform="translate(-62.810546,27.983669)">
    <path
       d="m 13.1,56.9 h 10 c 0.055,0 0.1,-0.045 0.1,-0.1 v -2.9 c 0,-0.1 -0.1,0 0,0 H 29 c 0.1,0 0,-0.1 0,0 v 2.9 c 0,0.055 0.045,0.1 0.1,0.1 h 6 c 0.055,0 0.1,-0.045 0.1,-0.1 v -2.9 c 0,-0.1 -0.1,0 0,0 H 41 c 0.1,0 0,-0.1 0,0 v 2.9 c 0,0.055 0.045,0.1 0.1,0.1 h 6 c 0.055,0 0.1,-0.045 0.1,-0.1 v -2.9 c 0,-0.1 -0.1,0 0,0 H 53 c 0.1,0 0,-0.1 0,0 v 2.9 c 0,0.055 0.045,0.1 0.1,0.1 h 6 c 0.055,0 0.1,-0.045 0.1,-0.1 v -2.9 c 0,-0.1 -0.1,0 0,0 H 65 c 0.1,0 0,-0.1 0,0 v 2.9 c 0,0.055 0.045,0.1 0.1,0.1 h 6 c 0.055,0 0.1,-0.045 0.1,-0.1 v -2.9 c 0,-0.1 -0.1,0 0,0 H 77 c 0.1,0 0,-0.1 0,0 v 2.9 c 0,0.055 0.045,0.1 0.1,0.1 h 10 3 c 0.055,0 0.1,-0.045 0.1,-0.1 v -3 -6.5 c 0,-0.055 -0.045,-0.1 -0.1,-0.1 h -2.9 c -0.1,0 0,0.1 0,0 v -5.8 c 0,-0.1 -0.1,0 0,0 h 2.9 c 0.055,0 0.1,-0.045 0.1,-0.1 v -6.5 -3 c 0,-0.055 -0.045,-0.1 -0.1,-0.1 h -3 -10 c -0.055,0 -0.1,0.045 -0.1,0.1 v 2.9 c 0,0.1 0.1,0 0,0 h -5.8 c -0.1,0 0,0.1 0,0 v -2.9 c 0,-0.055 -0.045,-0.1 -0.1,-0.1 h -6 c -0.055,0 -0.1,0.045 -0.1,0.1 v 2.9 c 0,0.1 0.1,0 0,0 h -5.8 c -0.1,0 0,0.1 0,0 v -2.9 c 0,-0.055 -0.045,-0.1 -0.1,-0.1 h -6 c -0.055,0 -0.1,0.045 -0.1,0.1 v 2.9 c 0,0.1 0.1,0 0,0 h -5.8 c -0.1,0 0,0.1 0,0 v -2.9 c 0,-0.055 -0.045,-0.1 -0.1,-0.1 h -6 c -0.055,0 -0.1,0.045 -0.1,0.1 v 2.9 c 0,0.1 0.1,0 0,0 h -5.8 c -0.1,0 0,0.1 0,0 v -2.9 c 0,-0.055 -0.045,-0.1 -0.1,-0.1 h -6 c -0.055,0 -0.1,0.045 -0.1,0.1 v 2.9 c 0,0.1 0.1,0 0,0 h -5.8 c -0.1,0 0,0.1 0,0 v -2.9 c 0,-0.055 -0.045,-0.1 -0.1,-0.1 h -10 -3 c -0.055,0 -0.1,0.045 -0.1,0.1 v 3 6.5 c 0,0.055 0.045,0.1 0.1,0.1 H 13 c 0.1,0 0,-0.1 0,0 v 5.8 c 0,0.1 0.1,0 0,0 h -2.9 c -0.055,0 -0.1,0.045 -0.1,0.1 v 6.5 3 c 0,0.055 0.045,0.1 0.1,0.1 z"
       stroke="#000000"
       stroke-width="0.2"
       id="path20"
       style="stroke:#ff0000;stroke-opacity:1" />
  </g>
  <g
     id="p-5"
     style="fill:none;stroke-linecap:round;stroke-linejoin:round;stroke:#ff0000;stroke-opacity:1"
     transform="translate(-62.810546,27.983669)">
    <path
       d="M 13.1,27.2 H 23 c 0.1,0 0,-0.1 0,0 v 2.9 c 0,0.055 0.045,0.1 0.1,0.1 h 6 c 0.055,0 0.1,-0.045 0.1,-0.1 v -2.9 c 0,-0.1 -0.1,0 0,0 H 35 c 0.1,0 0,-0.1 0,0 v 2.9 c 0,0.055 0.045,0.1 0.1,0.1 h 6 c 0.055,0 0.1,-0.045 0.1,-0.1 v -2.9 c 0,-0.1 -0.1,0 0,0 H 47 c 0.1,0 0,-0.1 0,0 v 2.9 c 0,0.055 0.045,0.1 0.1,0.1 h 6 c 0.055,0 0.1,-0.045 0.1,-0.1 v -2.9 c 0,-0.1 -0.1,0 0,0 H 59 c 0.1,0 0,-0.1 0,0 v 2.9 c 0,0.055 0.045,0.1 0.1,0.1 h 6 c 0.055,0 0.1,-0.045 0.1,-0.1 v -2.9 c 0,-0.1 -0.1,0 0,0 H 71 c 0.1,0 0,-0.1 0,0 v 2.9 c 0,0.055 0.045,0.1 0.1,0.1 h 6 c 0.055,0 0.1,-0.045 0.1,-0.1 v -2.9 c 0,-0.1 -0.1,0 0,0 h 9.9 c 0.055,0 0.1,-0.045 0.1,-0.1 v -7 -7 C 87.2,13.045 87.155,13 87.1,13 h -9.9 c -0.1,0 0,0.1 0,0 V 10.1 C 77.2,10.045 77.155,10 77.1,10 h -6 C 71.045,10 71,10.045 71,10.1 V 13 c 0,0.1 0.1,0 0,0 h -5.8 c -0.1,0 0,0.1 0,0 V 10.1 C 65.2,10.045 65.155,10 65.1,10 h -6 C 59.045,10 59,10.045 59,10.1 V 13 c 0,0.1 0.1,0 0,0 h -5.8 c -0.1,0 0,0.1 0,0 V 10.1 C 53.2,10.045 53.155,10 53.1,10 h -6 C 47.045,10 47,10.045 47,10.1 V 13 c 0,0.1 0.1,0 0,0 h -5.8 c -0.1,0 0,0.1 0,0 V 10.1 C 41.2,10.045 41.155,10 41.1,10 h -6 C 35.045,10 35,10.045 35,10.1 V 13 c 0,0.1 0.1,0 0,0 h -5.8 c -0.1,0 0,0.1 0,0 V 10.1 C 29.2,10.045 29.155,10 29.1,10 h -6 C 23.045,10 23,10.045 23,10.1 V 13 c 0,0.1 0.1,0 0,0 H 13.1 C 13.045,13 13,13.045 13,13.1 v 7 7 c 0,0.055 0.045,0.1 0.1,0.1 z"
       stroke="#000000"
       stroke-width="0.2"
       id="path23"
       style="stroke:#ff0000;stroke-opacity:1" />
  </g>
  <g
     id="p-6"
     style="fill:none;stroke-linecap:round;stroke-linejoin:round;stroke:#ff0000;stroke-opacity:1"
     transform="translate(-62.810546,27.983669)">
    <path
       d="m 94.8,27.2 h 9.9 c 0.1,0 0,-0.1 0,0 v 2.9 c 0,0.055 0.045,0.1 0.1,0.1 h 6 c 0.055,0 0.1,-0.045 0.1,-0.1 v -2.9 c 0,-0.1 -0.1,0 0,0 h 5.8 c 0.1,0 0,-0.1 0,0 v 2.9 c 0,0.055 0.045,0.1 0.1,0.1 h 6 c 0.055,0 0.1,-0.045 0.1,-0.1 v -2.9 c 0,-0.1 -0.1,0 0,0 h 5.8 c 0.1,0 0,-0.1 0,0 v 2.9 c 0,0.055 0.045,0.1 0.1,0.1 h 6 c 0.055,0 0.1,-0.045 0.1,-0.1 v -2.9 c 0,-0.1 -0.1,0 0,0 h 5.8 c 0.1,0 0,-0.1 0,0 v 2.9 c 0,0.055 0.045,0.1 0.1,0.1 h 6 c 0.055,0 0.1,-0.045 0.1,-0.1 v -2.9 c 0,-0.1 -0.1,0 0,0 h 5.8 c 0.1,0 0,-0.1 0,0 v 2.9 c 0,0.055 0.045,0.1 0.1,0.1 h 6 c 0.055,0 0.1,-0.045 0.1,-0.1 v -2.9 c 0,-0.1 -0.1,0 0,0 h 9.9 c 0.055,0 0.1,-0.045 0.1,-0.1 v -7 -7 c 0,-0.055 -0.045,-0.1 -0.1,-0.1 h -9.9 c -0.1,0 0,0.1 0,0 v -2.9 c 0,-0.055 -0.045,-0.1 -0.1,-0.1 h -6 c -0.055,0 -0.1,0.045 -0.1,0.1 V 13 c 0,0.1 0.1,0 0,0 h -5.8 c -0.1,0 0,0.1 0,0 v -2.9 c 0,-0.055 -0.045,-0.1 -0.1,-0.1 h -6 c -0.055,0 -0.1,0.045 -0.1,0.1 V 13 c 0,0.1 0.1,0 0,0 h -5.8 c -0.1,0 0,0.1 0,0 v -2.9 c 0,-0.055 -0.045,-0.1 -0.1,-0.1 h -6 c -0.055,0 -0.1,0.045 -0.1,0.1 V 13 c 0,0.1 0.1,0 0,0 h -5.8 c -0.1,0 0,0.1 0,0 v -2.9 c 0,-0.055 -0.045,-0.1 -0.1,-0.1 h -6 c -0.055,0 -0.1,0.045 -0.1,0.1 V 13 c 0,0.1 0.1,0 0,0 h -5.8 c -0.1,0 0,0.1 0,0 v -2.9 c 0,-0.055 -0.045,-0.1 -0.1,-0.1 h -6 c -0.055,0 -0.1,0.045 -0.1,0.1 V 13 c 0,0.1 0.1,0 0,0 h -9.9 c -0.055,0 -0.1,0.045 -0.1,0.1 v 7 7 c 0,0.055 0.045,0.1 0.1,0.1 z"
       stroke="#000000"
       stroke-width="0.2"
       id="path26"
       style="stroke:#ff0000;stroke-opacity:1" />
  </g>
</svg>
