<?xml version="1.0" encoding="UTF-8"?>
<svg height="194.30mm" viewBox="0.0 0.0 120.10 194.30" width="120.10mm" xmlns="http://www.w3.org/2000/svg" xmlns:cc="http://creativecommons.org/ns#" xmlns:dc="http://purl.org/dc/elements/1.1/" xmlns:inkscape="http://www.inkscape.org/namespaces/inkscape" xmlns:rdf="http://www.w3.org/1999/02/22-rdf-syntax-ns#" xmlns:svg="http://www.w3.org/2000/svg" xmlns:xlink="http://www.w3.org/1999/xlink">
<!--
UniversalBox - Box with various options for different styles and lids

Created with Boxes.py (https://festi.info/boxes.py)
Creation date: 2021-02-05 09:18:47
Command line (remove spaces between dashes): boxes UniversalBox - -FingerJoint_angle=90.0 - -FingerJoint_style=rectangular - -FingerJoint_surroundingspaces=2.0 - -FingerJoint_edge_width=1.0 - -FingerJoint_finger=2.0 - -FingerJoint_play=0.0 - -FingerJoint_space=2.0 - -FingerJoint_width=1.0 - -Stackable_angle=60 - -Stackable_height=2.0 - -Stackable_holedistance=1.0 - -Stackable_width=4.0 - -Hinge_grip_percentage=0 - -Hinge_outset=0 - -Hinge_outset=1 - -Hinge_pinwidth=0.5 - -Hinge_style=outset - -Hinge_axle=2 - -Hinge_grip_length=0 - -Hinge_hingestrength=1 - -CabinetHinge_bore=3.2 - -CabinetHinge_eyes_per_hinge=5 - -CabinetHinge_hinges=2 - -CabinetHinge_style=inside - -CabinetHinge_eye=1.5 - -CabinetHinge_play=0.05 - -CabinetHinge_spacing=2.0 - -Lid_angle=90.0 - -Lid_second_pin=0 - -Lid_second_pin=1 - -Lid_spring=both - -Lid_style=rectangular - -Lid_surroundingspaces=2.0 - -Lid_edge_width=1.0 - -Lid_finger=3.0 - -Lid_play=0.05 - -Lid_space=2.0 - -Lid_width=1.0 - -Click_angle=5.0 - -Click_bottom_radius=0.1 - -Click_depth=3.0 - -RoundedTriangleEdge_height=150.0 - -RoundedTriangleEdge_r_hole=2.0 - -RoundedTriangleEdge_radius=30.0 - -RoundedTriangleEdge_outset=1 - -Flex_stretch=1.05 - -Flex_connection=1.0 - -Flex_distance=0.5 - -Flex_width=5.0 - -top_edge=e - -bottom_edge=F - -x=42 - -y=7 - -h=70 - -outside=0 '- -vertical_edges=finger joints' '- -lid=default (none)' - -thickness=3.0 - -format=svg - -tabs=0.0 - -debug=0 - -reference=100 - -burn=0.1
Url: http://www.festi.info/UniversalBox?FingerJoint_angle=90.0&FingerJoint_style=rectangular&FingerJoint_surroundingspaces=2.0&FingerJoint_edge_width=1.0&FingerJoint_finger=2.0&FingerJoint_play=0.0&FingerJoint_space=2.0&FingerJoint_width=1.0&Stackable_angle=60&Stackable_height=2.0&Stackable_holedistance=1.0&Stackable_width=4.0&Hinge_grip_percentage=0&Hinge_outset=0&Hinge_outset=1&Hinge_pinwidth=0.5&Hinge_style=outset&Hinge_axle=2&Hinge_grip_length=0&Hinge_hingestrength=1&CabinetHinge_bore=3.2&CabinetHinge_eyes_per_hinge=5&CabinetHinge_hinges=2&CabinetHinge_style=inside&CabinetHinge_eye=1.5&CabinetHinge_play=0.05&CabinetHinge_spacing=2.0&Lid_angle=90.0&Lid_second_pin=0&Lid_second_pin=1&Lid_spring=both&Lid_style=rectangular&Lid_surroundingspaces=2.0&Lid_edge_width=1.0&Lid_finger=3.0&Lid_play=0.05&Lid_space=2.0&Lid_width=1.0&Click_angle=5.0&Click_bottom_radius=0.1&Click_depth=3.0&RoundedTriangleEdge_height=150.0&RoundedTriangleEdge_r_hole=2.0&RoundedTriangleEdge_radius=30.0&RoundedTriangleEdge_outset=1&Flex_stretch=1.05&Flex_connection=1.0&Flex_distance=0.5&Flex_width=5.0&top_edge=e&bottom_edge=F&x=42&y=7&h=70&outside=0&vertical_edges=finger+joints&lid=default+%28none%29&thickness=3.0&format=svg&tabs=0.0&debug=0&reference=100&burn=0.1&render=1
SettingsUrl: http://www.festi.info/UniversalBox?FingerJoint_angle=90.0&FingerJoint_style=rectangular&FingerJoint_surroundingspaces=2.0&FingerJoint_edge_width=1.0&FingerJoint_finger=2.0&FingerJoint_play=0.0&FingerJoint_space=2.0&FingerJoint_width=1.0&Stackable_angle=60&Stackable_height=2.0&Stackable_holedistance=1.0&Stackable_width=4.0&Hinge_grip_percentage=0&Hinge_outset=0&Hinge_outset=1&Hinge_pinwidth=0.5&Hinge_style=outset&Hinge_axle=2&Hinge_grip_length=0&Hinge_hingestrength=1&CabinetHinge_bore=3.2&CabinetHinge_eyes_per_hinge=5&CabinetHinge_hinges=2&CabinetHinge_style=inside&CabinetHinge_eye=1.5&CabinetHinge_play=0.05&CabinetHinge_spacing=2.0&Lid_angle=90.0&Lid_second_pin=0&Lid_second_pin=1&Lid_spring=both&Lid_style=rectangular&Lid_surroundingspaces=2.0&Lid_edge_width=1.0&Lid_finger=3.0&Lid_play=0.05&Lid_space=2.0&Lid_width=1.0&Click_angle=5.0&Click_bottom_radius=0.1&Click_depth=3.0&RoundedTriangleEdge_height=150.0&RoundedTriangleEdge_r_hole=2.0&RoundedTriangleEdge_radius=30.0&RoundedTriangleEdge_outset=1&Flex_stretch=1.05&Flex_connection=1.0&Flex_distance=0.5&Flex_width=5.0&top_edge=e&bottom_edge=F&x=42&y=7&h=70&outside=0&vertical_edges=finger+joints&lid=default+%28none%29&thickness=3.0&format=svg&tabs=0.0&debug=0&reference=100&burn=0.1
-->
<title>UniversalBox</title>
<metadata>
<rdf:RDF><cc:Work>
<dc:title>Box - UniversalBox</dc:title>
<dc:date>2021-02-05 09:18:47</dc:date>
<dc:source>http://www.festi.info/UniversalBox?FingerJoint_angle=90.0&amp;FingerJoint_style=rectangular&amp;FingerJoint_surroundingspaces=2.0&amp;FingerJoint_edge_width=1.0&amp;FingerJoint_finger=2.0&amp;FingerJoint_play=0.0&amp;FingerJoint_space=2.0&amp;FingerJoint_width=1.0&amp;Stackable_angle=60&amp;Stackable_height=2.0&amp;Stackable_holedistance=1.0&amp;Stackable_width=4.0&amp;Hinge_grip_percentage=0&amp;Hinge_outset=0&amp;Hinge_outset=1&amp;Hinge_pinwidth=0.5&amp;Hinge_style=outset&amp;Hinge_axle=2&amp;Hinge_grip_length=0&amp;Hinge_hingestrength=1&amp;CabinetHinge_bore=3.2&amp;CabinetHinge_eyes_per_hinge=5&amp;CabinetHinge_hinges=2&amp;CabinetHinge_style=inside&amp;CabinetHinge_eye=1.5&amp;CabinetHinge_play=0.05&amp;CabinetHinge_spacing=2.0&amp;Lid_angle=90.0&amp;Lid_second_pin=0&amp;Lid_second_pin=1&amp;Lid_spring=both&amp;Lid_style=rectangular&amp;Lid_surroundingspaces=2.0&amp;Lid_edge_width=1.0&amp;Lid_finger=3.0&amp;Lid_play=0.05&amp;Lid_space=2.0&amp;Lid_width=1.0&amp;Click_angle=5.0&amp;Click_bottom_radius=0.1&amp;Click_depth=3.0&amp;RoundedTriangleEdge_height=150.0&amp;RoundedTriangleEdge_r_hole=2.0&amp;RoundedTriangleEdge_radius=30.0&amp;RoundedTriangleEdge_outset=1&amp;Flex_stretch=1.05&amp;Flex_connection=1.0&amp;Flex_distance=0.5&amp;Flex_width=5.0&amp;top_edge=e&amp;bottom_edge=F&amp;x=42&amp;y=7&amp;h=70&amp;outside=0&amp;vertical_edges=finger+joints&amp;lid=default+%28none%29&amp;thickness=3.0&amp;format=svg&amp;tabs=0.0&amp;debug=0&amp;reference=100&amp;burn=0.1&amp;render=1</dc:source>
<dc:description>Box with various options for different styles and lids

Created with Boxes.py (https://festi.info/boxes.py)
Command line: boxes UniversalBox --FingerJoint_angle=90.0 --FingerJoint_style=rectangular --FingerJoint_surroundingspaces=2.0 --FingerJoint_edge_width=1.0 --FingerJoint_finger=2.0 --FingerJoint_play=0.0 --FingerJoint_space=2.0 --FingerJoint_width=1.0 --Stackable_angle=60 --Stackable_height=2.0 --Stackable_holedistance=1.0 --Stackable_width=4.0 --Hinge_grip_percentage=0 --Hinge_outset=0 --Hinge_outset=1 --Hinge_pinwidth=0.5 --Hinge_style=outset --Hinge_axle=2 --Hinge_grip_length=0 --Hinge_hingestrength=1 --CabinetHinge_bore=3.2 --CabinetHinge_eyes_per_hinge=5 --CabinetHinge_hinges=2 --CabinetHinge_style=inside --CabinetHinge_eye=1.5 --CabinetHinge_play=0.05 --CabinetHinge_spacing=2.0 --Lid_angle=90.0 --Lid_second_pin=0 --Lid_second_pin=1 --Lid_spring=both --Lid_style=rectangular --Lid_surroundingspaces=2.0 --Lid_edge_width=1.0 --Lid_finger=3.0 --Lid_play=0.05 --Lid_space=2.0 --Lid_width=1.0 --Click_angle=5.0 --Click_bottom_radius=0.1 --Click_depth=3.0 --RoundedTriangleEdge_height=150.0 --RoundedTriangleEdge_r_hole=2.0 --RoundedTriangleEdge_radius=30.0 --RoundedTriangleEdge_outset=1 --Flex_stretch=1.05 --Flex_connection=1.0 --Flex_distance=0.5 --Flex_width=5.0 --top_edge=e --bottom_edge=F --x=42 --y=7 --h=70 --outside=0 '--vertical_edges=finger joints' '--lid=default (none)' --thickness=3.0 --format=svg --tabs=0.0 --debug=0 --reference=100 --burn=0.1
Url: http://www.festi.info/UniversalBox?FingerJoint_angle=90.0&amp;FingerJoint_style=rectangular&amp;FingerJoint_surroundingspaces=2.0&amp;FingerJoint_edge_width=1.0&amp;FingerJoint_finger=2.0&amp;FingerJoint_play=0.0&amp;FingerJoint_space=2.0&amp;FingerJoint_width=1.0&amp;Stackable_angle=60&amp;Stackable_height=2.0&amp;Stackable_holedistance=1.0&amp;Stackable_width=4.0&amp;Hinge_grip_percentage=0&amp;Hinge_outset=0&amp;Hinge_outset=1&amp;Hinge_pinwidth=0.5&amp;Hinge_style=outset&amp;Hinge_axle=2&amp;Hinge_grip_length=0&amp;Hinge_hingestrength=1&amp;CabinetHinge_bore=3.2&amp;CabinetHinge_eyes_per_hinge=5&amp;CabinetHinge_hinges=2&amp;CabinetHinge_style=inside&amp;CabinetHinge_eye=1.5&amp;CabinetHinge_play=0.05&amp;CabinetHinge_spacing=2.0&amp;Lid_angle=90.0&amp;Lid_second_pin=0&amp;Lid_second_pin=1&amp;Lid_spring=both&amp;Lid_style=rectangular&amp;Lid_surroundingspaces=2.0&amp;Lid_edge_width=1.0&amp;Lid_finger=3.0&amp;Lid_play=0.05&amp;Lid_space=2.0&amp;Lid_width=1.0&amp;Click_angle=5.0&amp;Click_bottom_radius=0.1&amp;Click_depth=3.0&amp;RoundedTriangleEdge_height=150.0&amp;RoundedTriangleEdge_r_hole=2.0&amp;RoundedTriangleEdge_radius=30.0&amp;RoundedTriangleEdge_outset=1&amp;Flex_stretch=1.05&amp;Flex_connection=1.0&amp;Flex_distance=0.5&amp;Flex_width=5.0&amp;top_edge=e&amp;bottom_edge=F&amp;x=42&amp;y=7&amp;h=70&amp;outside=0&amp;vertical_edges=finger+joints&amp;lid=default+%28none%29&amp;thickness=3.0&amp;format=svg&amp;tabs=0.0&amp;debug=0&amp;reference=100&amp;burn=0.1&amp;render=1
SettingsUrl: http://www.festi.info/UniversalBox?FingerJoint_angle=90.0&amp;FingerJoint_style=rectangular&amp;FingerJoint_surroundingspaces=2.0&amp;FingerJoint_edge_width=1.0&amp;FingerJoint_finger=2.0&amp;FingerJoint_play=0.0&amp;FingerJoint_space=2.0&amp;FingerJoint_width=1.0&amp;Stackable_angle=60&amp;Stackable_height=2.0&amp;Stackable_holedistance=1.0&amp;Stackable_width=4.0&amp;Hinge_grip_percentage=0&amp;Hinge_outset=0&amp;Hinge_outset=1&amp;Hinge_pinwidth=0.5&amp;Hinge_style=outset&amp;Hinge_axle=2&amp;Hinge_grip_length=0&amp;Hinge_hingestrength=1&amp;CabinetHinge_bore=3.2&amp;CabinetHinge_eyes_per_hinge=5&amp;CabinetHinge_hinges=2&amp;CabinetHinge_style=inside&amp;CabinetHinge_eye=1.5&amp;CabinetHinge_play=0.05&amp;CabinetHinge_spacing=2.0&amp;Lid_angle=90.0&amp;Lid_second_pin=0&amp;Lid_second_pin=1&amp;Lid_spring=both&amp;Lid_style=rectangular&amp;Lid_surroundingspaces=2.0&amp;Lid_edge_width=1.0&amp;Lid_finger=3.0&amp;Lid_play=0.05&amp;Lid_space=2.0&amp;Lid_width=1.0&amp;Click_angle=5.0&amp;Click_bottom_radius=0.1&amp;Click_depth=3.0&amp;RoundedTriangleEdge_height=150.0&amp;RoundedTriangleEdge_r_hole=2.0&amp;RoundedTriangleEdge_radius=30.0&amp;RoundedTriangleEdge_outset=1&amp;Flex_stretch=1.05&amp;Flex_connection=1.0&amp;Flex_distance=0.5&amp;Flex_width=5.0&amp;top_edge=e&amp;bottom_edge=F&amp;x=42&amp;y=7&amp;h=70&amp;outside=0&amp;vertical_edges=finger+joints&amp;lid=default+%28none%29&amp;thickness=3.0&amp;format=svg&amp;tabs=0.0&amp;debug=0&amp;reference=100&amp;burn=0.1
</dc:description>
</cc:Work></rdf:RDF></metadata>
<g id="p-0" style="fill:none;stroke-linecap:round;stroke-linejoin:round;">
  <path d="M 10.100 184.300 H 110.100 V 174.300 H 10.100 V 184.300 Z" stroke="rgb(0,0,0)" stroke-width="0.20"/>
  <text alignment-baseline="hanging" font-size="10px" style="font-family: sans-serif ; font-weight: normal; font-style: normal; fill: rgb(0,0,0)" text-anchor="middle" transform="matrix( 1.000 0.000 0.000 1.000 60.100 174.300 )">100mm</text>
</g>
<g id="p-1" style="fill:none;stroke-linecap:round;stroke-linejoin:round;">
  <path d="M 13.100 172.600 H 19.100 C 19.155 172.600 19.200 172.555 19.200 172.500 V 169.600 C 19.200 169.500 19.100 169.600 19.200 169.600 H 25.000 C 25.100 169.600 25.000 169.500 25.000 169.600 V 172.500 C 25.000 172.555 25.045 172.600 25.100 172.600 H 31.100 C 31.155 172.600 31.200 172.555 31.200 172.500 V 169.600 C 31.200 169.500 31.100 169.600 31.200 169.600 H 37.000 C 37.100 169.600 37.000 169.500 37.000 169.600 V 172.500 C 37.000 172.555 37.045 172.600 37.100 172.600 H 43.100 C 43.155 172.600 43.200 172.555 43.200 172.500 V 169.600 C 43.200 169.500 43.100 169.600 43.200 169.600 H 49.000 C 49.100 169.600 49.000 169.500 49.000 169.600 V 172.500 C 49.000 172.555 49.045 172.600 49.100 172.600 H 55.100 H 58.100 C 58.155 172.600 58.200 172.555 58.200 172.500 V 163.000 C 58.200 162.945 58.155 162.900 58.100 162.900 H 55.200 C 55.100 162.900 55.200 163.000 55.200 162.900 V 157.100 C 55.200 157.000 55.100 157.100 55.200 157.100 H 58.100 C 58.155 157.100 58.200 157.055 58.200 157.000 V 151.000 C 58.200 150.945 58.155 150.900 58.100 150.900 H 55.200 C 55.100 150.900 55.200 151.000 55.200 150.900 V 145.100 C 55.200 145.000 55.100 145.100 55.200 145.100 H 58.100 C 58.155 145.100 58.200 145.055 58.200 145.000 V 139.000 C 58.200 138.945 58.155 138.900 58.100 138.900 H 55.200 C 55.100 138.900 55.200 139.000 55.200 138.900 V 133.100 C 55.200 133.000 55.100 133.100 55.200 133.100 H 58.100 C 58.155 133.100 58.200 133.055 58.200 133.000 V 127.000 C 58.200 126.945 58.155 126.900 58.100 126.900 H 55.200 C 55.100 126.900 55.200 127.000 55.200 126.900 V 121.100 C 55.200 121.000 55.100 121.100 55.200 121.100 H 58.100 C 58.155 121.100 58.200 121.055 58.200 121.000 V 115.000 C 58.200 114.945 58.155 114.900 58.100 114.900 H 55.200 C 55.100 114.900 55.200 115.000 55.200 114.900 V 109.100 C 55.200 109.000 55.100 109.100 55.200 109.100 H 58.100 C 58.155 109.100 58.200 109.055 58.200 109.000 V 99.500 C 58.200 99.445 58.155 99.400 58.100 99.400 H 55.100 H 13.100 H 10.100 C 10.045 99.400 10.000 99.445 10.000 99.500 V 109.000 C 10.000 109.055 10.045 109.100 10.100 109.100 H 13.000 C 13.100 109.100 13.000 109.000 13.000 109.100 V 114.900 C 13.000 115.000 13.100 114.900 13.000 114.900 H 10.100 C 10.045 114.900 10.000 114.945 10.000 115.000 V 121.000 C 10.000 121.055 10.045 121.100 10.100 121.100 H 13.000 C 13.100 121.100 13.000 121.000 13.000 121.100 V 126.900 C 13.000 127.000 13.100 126.900 13.000 126.900 H 10.100 C 10.045 126.900 10.000 126.945 10.000 127.000 V 133.000 C 10.000 133.055 10.045 133.100 10.100 133.100 H 13.000 C 13.100 133.100 13.000 133.000 13.000 133.100 V 138.900 C 13.000 139.000 13.100 138.900 13.000 138.900 H 10.100 C 10.045 138.900 10.000 138.945 10.000 139.000 V 145.000 C 10.000 145.055 10.045 145.100 10.100 145.100 H 13.000 C 13.100 145.100 13.000 145.000 13.000 145.100 V 150.900 C 13.000 151.000 13.100 150.900 13.000 150.900 H 10.100 C 10.045 150.900 10.000 150.945 10.000 151.000 V 157.000 C 10.000 157.055 10.045 157.100 10.100 157.100 H 13.000 C 13.100 157.100 13.000 157.000 13.000 157.100 V 162.900 C 13.000 163.000 13.100 162.900 13.000 162.900 H 10.100 C 10.045 162.900 10.000 162.945 10.000 163.000 V 172.500 C 10.000 172.555 10.045 172.600 10.100 172.600 H 13.100 Z" stroke="rgb(0,0,0)" stroke-width="0.20"/>
</g>
<g id="p-2" style="fill:none;stroke-linecap:round;stroke-linejoin:round;">
  <path d="M 13.100 97.900 H 19.100 C 19.155 97.900 19.200 97.855 19.200 97.800 V 94.900 C 19.200 94.800 19.100 94.900 19.200 94.900 H 25.000 C 25.100 94.900 25.000 94.800 25.000 94.900 V 97.800 C 25.000 97.855 25.045 97.900 25.100 97.900 H 31.100 C 31.155 97.900 31.200 97.855 31.200 97.800 V 94.900 C 31.200 94.800 31.100 94.900 31.200 94.900 H 37.000 C 37.100 94.900 37.000 94.800 37.000 94.900 V 97.800 C 37.000 97.855 37.045 97.900 37.100 97.900 H 43.100 C 43.155 97.900 43.200 97.855 43.200 97.800 V 94.900 C 43.200 94.800 43.100 94.900 43.200 94.900 H 49.000 C 49.100 94.900 49.000 94.800 49.000 94.900 V 97.800 C 49.000 97.855 49.045 97.900 49.100 97.900 H 55.100 H 58.100 C 58.155 97.900 58.200 97.855 58.200 97.800 V 88.300 C 58.200 88.245 58.155 88.200 58.100 88.200 H 55.200 C 55.100 88.200 55.200 88.300 55.200 88.200 V 82.400 C 55.200 82.300 55.100 82.400 55.200 82.400 H 58.100 C 58.155 82.400 58.200 82.355 58.200 82.300 V 76.300 C 58.200 76.245 58.155 76.200 58.100 76.200 H 55.200 C 55.100 76.200 55.200 76.300 55.200 76.200 V 70.400 C 55.200 70.300 55.100 70.400 55.200 70.400 H 58.100 C 58.155 70.400 58.200 70.355 58.200 70.300 V 64.300 C 58.200 64.245 58.155 64.200 58.100 64.200 H 55.200 C 55.100 64.200 55.200 64.300 55.200 64.200 V 58.400 C 55.200 58.300 55.100 58.400 55.200 58.400 H 58.100 C 58.155 58.400 58.200 58.355 58.200 58.300 V 52.300 C 58.200 52.245 58.155 52.200 58.100 52.200 H 55.200 C 55.100 52.200 55.200 52.300 55.200 52.200 V 46.400 C 55.200 46.300 55.100 46.400 55.200 46.400 H 58.100 C 58.155 46.400 58.200 46.355 58.200 46.300 V 40.300 C 58.200 40.245 58.155 40.200 58.100 40.200 H 55.200 C 55.100 40.200 55.200 40.300 55.200 40.200 V 34.400 C 55.200 34.300 55.100 34.400 55.200 34.400 H 58.100 C 58.155 34.400 58.200 34.355 58.200 34.300 V 24.800 C 58.200 24.745 58.155 24.700 58.100 24.700 H 55.100 H 13.100 H 10.100 C 10.045 24.700 10.000 24.745 10.000 24.800 V 34.300 C 10.000 34.355 10.045 34.400 10.100 34.400 H 13.000 C 13.100 34.400 13.000 34.300 13.000 34.400 V 40.200 C 13.000 40.300 13.100 40.200 13.000 40.200 H 10.100 C 10.045 40.200 10.000 40.245 10.000 40.300 V 46.300 C 10.000 46.355 10.045 46.400 10.100 46.400 H 13.000 C 13.100 46.400 13.000 46.300 13.000 46.400 V 52.200 C 13.000 52.300 13.100 52.200 13.000 52.200 H 10.100 C 10.045 52.200 10.000 52.245 10.000 52.300 V 58.300 C 10.000 58.355 10.045 58.400 10.100 58.400 H 13.000 C 13.100 58.400 13.000 58.300 13.000 58.400 V 64.200 C 13.000 64.300 13.100 64.200 13.000 64.200 H 10.100 C 10.045 64.200 10.000 64.245 10.000 64.300 V 70.300 C 10.000 70.355 10.045 70.400 10.100 70.400 H 13.000 C 13.100 70.400 13.000 70.300 13.000 70.400 V 76.200 C 13.000 76.300 13.100 76.200 13.000 76.200 H 10.100 C 10.045 76.200 10.000 76.245 10.000 76.300 V 82.300 C 10.000 82.355 10.045 82.400 10.100 82.400 H 13.000 C 13.100 82.400 13.000 82.300 13.000 82.400 V 88.200 C 13.000 88.300 13.100 88.200 13.000 88.200 H 10.100 C 10.045 88.200 10.000 88.245 10.000 88.300 V 97.800 C 10.000 97.855 10.045 97.900 10.100 97.900 H 13.100 Z" stroke="rgb(0,0,0)" stroke-width="0.20"/>
</g>
<g id="p-3" style="fill:none;stroke-linecap:round;stroke-linejoin:round;">
  <path d="M 13.100 20.200 H 19.000 C 19.100 20.200 19.000 20.100 19.000 20.200 V 23.100 C 19.000 23.155 19.045 23.200 19.100 23.200 H 25.100 C 25.155 23.200 25.200 23.155 25.200 23.100 V 20.200 C 25.200 20.100 25.100 20.200 25.200 20.200 H 31.000 C 31.100 20.200 31.000 20.100 31.000 20.200 V 23.100 C 31.000 23.155 31.045 23.200 31.100 23.200 H 37.100 C 37.155 23.200 37.200 23.155 37.200 23.100 V 20.200 C 37.200 20.100 37.100 20.200 37.200 20.200 H 43.000 C 43.100 20.200 43.000 20.100 43.000 20.200 V 23.100 C 43.000 23.155 43.045 23.200 43.100 23.200 H 49.100 C 49.155 23.200 49.200 23.155 49.200 23.100 V 20.200 C 49.200 20.100 49.100 20.200 49.200 20.200 H 55.100 C 55.155 20.200 55.200 20.155 55.200 20.100 V 16.600 V 13.100 C 55.200 13.045 55.155 13.000 55.100 13.000 H 49.200 C 49.100 13.000 49.200 13.100 49.200 13.000 V 10.100 C 49.200 10.045 49.155 10.000 49.100 10.000 H 43.100 C 43.045 10.000 43.000 10.045 43.000 10.100 V 13.000 C 43.000 13.100 43.100 13.000 43.000 13.000 H 37.200 C 37.100 13.000 37.200 13.100 37.200 13.000 V 10.100 C 37.200 10.045 37.155 10.000 37.100 10.000 H 31.100 C 31.045 10.000 31.000 10.045 31.000 10.100 V 13.000 C 31.000 13.100 31.100 13.000 31.000 13.000 H 25.200 C 25.100 13.000 25.200 13.100 25.200 13.000 V 10.100 C 25.200 10.045 25.155 10.000 25.100 10.000 H 19.100 C 19.045 10.000 19.000 10.045 19.000 10.100 V 13.000 C 19.000 13.100 19.100 13.000 19.000 13.000 H 13.100 C 13.045 13.000 13.000 13.045 13.000 13.100 V 16.600 V 20.100 C 13.000 20.155 13.045 20.200 13.100 20.200 Z" stroke="rgb(0,0,0)" stroke-width="0.20"/>
</g>
<g id="p-4" style="fill:none;stroke-linecap:round;stroke-linejoin:round;">
  <path d="M 62.800 172.600 H 66.300 H 69.800 C 69.855 172.600 69.900 172.555 69.900 172.500 V 163.100 C 69.900 163.000 69.800 163.100 69.900 163.100 H 72.800 C 72.855 163.100 72.900 163.055 72.900 163.000 V 157.000 C 72.900 156.945 72.855 156.900 72.800 156.900 H 69.900 C 69.800 156.900 69.900 157.000 69.900 156.900 V 151.100 C 69.900 151.000 69.800 151.100 69.900 151.100 H 72.800 C 72.855 151.100 72.900 151.055 72.900 151.000 V 145.000 C 72.900 144.945 72.855 144.900 72.800 144.900 H 69.900 C 69.800 144.900 69.900 145.000 69.900 144.900 V 139.100 C 69.900 139.000 69.800 139.100 69.900 139.100 H 72.800 C 72.855 139.100 72.900 139.055 72.900 139.000 V 133.000 C 72.900 132.945 72.855 132.900 72.800 132.900 H 69.900 C 69.800 132.900 69.900 133.000 69.900 132.900 V 127.100 C 69.900 127.000 69.800 127.100 69.900 127.100 H 72.800 C 72.855 127.100 72.900 127.055 72.900 127.000 V 121.000 C 72.900 120.945 72.855 120.900 72.800 120.900 H 69.900 C 69.800 120.900 69.900 121.000 69.900 120.900 V 115.100 C 69.900 115.000 69.800 115.100 69.900 115.100 H 72.800 C 72.855 115.100 72.900 115.055 72.900 115.000 V 109.000 C 72.900 108.945 72.855 108.900 72.800 108.900 H 69.900 C 69.800 108.900 69.900 109.000 69.900 108.900 V 99.500 C 69.900 99.445 69.855 99.400 69.800 99.400 H 62.800 C 62.745 99.400 62.700 99.445 62.700 99.500 V 108.900 C 62.700 109.000 62.800 108.900 62.700 108.900 H 59.800 C 59.745 108.900 59.700 108.945 59.700 109.000 V 115.000 C 59.700 115.055 59.745 115.100 59.800 115.100 H 62.700 C 62.800 115.100 62.700 115.000 62.700 115.100 V 120.900 C 62.700 121.000 62.800 120.900 62.700 120.900 H 59.800 C 59.745 120.900 59.700 120.945 59.700 121.000 V 127.000 C 59.700 127.055 59.745 127.100 59.800 127.100 H 62.700 C 62.800 127.100 62.700 127.000 62.700 127.100 V 132.900 C 62.700 133.000 62.800 132.900 62.700 132.900 H 59.800 C 59.745 132.900 59.700 132.945 59.700 133.000 V 139.000 C 59.700 139.055 59.745 139.100 59.800 139.100 H 62.700 C 62.800 139.100 62.700 139.000 62.700 139.100 V 144.900 C 62.700 145.000 62.800 144.900 62.700 144.900 H 59.800 C 59.745 144.900 59.700 144.945 59.700 145.000 V 151.000 C 59.700 151.055 59.745 151.100 59.800 151.100 H 62.700 C 62.800 151.100 62.700 151.000 62.700 151.100 V 156.900 C 62.700 157.000 62.800 156.900 62.700 156.900 H 59.800 C 59.745 156.900 59.700 156.945 59.700 157.000 V 163.000 C 59.700 163.055 59.745 163.100 59.800 163.100 H 62.700 C 62.800 163.100 62.700 163.000 62.700 163.100 V 172.500 C 62.700 172.555 62.745 172.600 62.800 172.600 Z" stroke="rgb(0,0,0)" stroke-width="0.20"/>
</g>
<g id="p-5" style="fill:none;stroke-linecap:round;stroke-linejoin:round;">
  <path d="M 62.800 97.900 H 66.300 H 69.800 C 69.855 97.900 69.900 97.855 69.900 97.800 V 88.400 C 69.900 88.300 69.800 88.400 69.900 88.400 H 72.800 C 72.855 88.400 72.900 88.355 72.900 88.300 V 82.300 C 72.900 82.245 72.855 82.200 72.800 82.200 H 69.900 C 69.800 82.200 69.900 82.300 69.900 82.200 V 76.400 C 69.900 76.300 69.800 76.400 69.900 76.400 H 72.800 C 72.855 76.400 72.900 76.355 72.900 76.300 V 70.300 C 72.900 70.245 72.855 70.200 72.800 70.200 H 69.900 C 69.800 70.200 69.900 70.300 69.900 70.200 V 64.400 C 69.900 64.300 69.800 64.400 69.900 64.400 H 72.800 C 72.855 64.400 72.900 64.355 72.900 64.300 V 58.300 C 72.900 58.245 72.855 58.200 72.800 58.200 H 69.900 C 69.800 58.200 69.900 58.300 69.900 58.200 V 52.400 C 69.900 52.300 69.800 52.400 69.900 52.400 H 72.800 C 72.855 52.400 72.900 52.355 72.900 52.300 V 46.300 C 72.900 46.245 72.855 46.200 72.800 46.200 H 69.900 C 69.800 46.200 69.900 46.300 69.900 46.200 V 40.400 C 69.900 40.300 69.800 40.400 69.900 40.400 H 72.800 C 72.855 40.400 72.900 40.355 72.900 40.300 V 34.300 C 72.900 34.245 72.855 34.200 72.800 34.200 H 69.900 C 69.800 34.200 69.900 34.300 69.900 34.200 V 24.800 C 69.900 24.745 69.855 24.700 69.800 24.700 H 62.800 C 62.745 24.700 62.700 24.745 62.700 24.800 V 34.200 C 62.700 34.300 62.800 34.200 62.700 34.200 H 59.800 C 59.745 34.200 59.700 34.245 59.700 34.300 V 40.300 C 59.700 40.355 59.745 40.400 59.800 40.400 H 62.700 C 62.800 40.400 62.700 40.300 62.700 40.400 V 46.200 C 62.700 46.300 62.800 46.200 62.700 46.200 H 59.800 C 59.745 46.200 59.700 46.245 59.700 46.300 V 52.300 C 59.700 52.355 59.745 52.400 59.800 52.400 H 62.700 C 62.800 52.400 62.700 52.300 62.700 52.400 V 58.200 C 62.700 58.300 62.800 58.200 62.700 58.200 H 59.800 C 59.745 58.200 59.700 58.245 59.700 58.300 V 64.300 C 59.700 64.355 59.745 64.400 59.800 64.400 H 62.700 C 62.800 64.400 62.700 64.300 62.700 64.400 V 70.200 C 62.700 70.300 62.800 70.200 62.700 70.200 H 59.800 C 59.745 70.200 59.700 70.245 59.700 70.300 V 76.300 C 59.700 76.355 59.745 76.400 59.800 76.400 H 62.700 C 62.800 76.400 62.700 76.300 62.700 76.400 V 82.200 C 62.700 82.300 62.800 82.200 62.700 82.200 H 59.800 C 59.745 82.200 59.700 82.245 59.700 82.300 V 88.300 C 59.700 88.355 59.745 88.400 59.800 88.400 H 62.700 C 62.800 88.400 62.700 88.300 62.700 88.400 V 97.800 C 62.700 97.855 62.745 97.900 62.800 97.900 Z" stroke="rgb(0,0,0)" stroke-width="0.20"/>
</g>
</svg>